<svg xmlns="http://www.w3.org/2000/svg" viewBox="0 0 58.707 55.16">
  <defs>
    <style>
      .cls-1 {
        fill: #e4b96c;
      }
    </style>
  </defs>
  <title>1abstract_01</title>
  <g id="Шар_2" data-name="Шар 2">
    <g id="BACKGROUND_1" data-name="BACKGROUND 1">
      <g>
        <g>
          <path class="cls-1" d="M2.984,1.493A1.492,1.492,0,1,1,1.492,0,1.492,1.492,0,0,1,2.984,1.493Z"/>
          <path class="cls-1" d="M8.557,1.493A1.493,1.493,0,1,1,7.064,0,1.492,1.492,0,0,1,8.557,1.493Z"/>
          <path class="cls-1" d="M14.129,1.493A1.493,1.493,0,1,1,12.637,0,1.492,1.492,0,0,1,14.129,1.493Z"/>
          <path class="cls-1" d="M19.7,1.493A1.492,1.492,0,1,1,18.209,0,1.492,1.492,0,0,1,19.7,1.493Z"/>
          <path class="cls-1" d="M25.273,1.493A1.492,1.492,0,1,1,23.781,0,1.492,1.492,0,0,1,25.273,1.493Z"/>
          <path class="cls-1" d="M30.846,1.493A1.493,1.493,0,1,1,29.353,0,1.492,1.492,0,0,1,30.846,1.493Z"/>
          <path class="cls-1" d="M36.418,1.493A1.492,1.492,0,1,1,34.926,0,1.492,1.492,0,0,1,36.418,1.493Z"/>
          <path class="cls-1" d="M41.99,1.493A1.492,1.492,0,1,1,40.5,0,1.492,1.492,0,0,1,41.99,1.493Z"/>
          <path class="cls-1" d="M47.562,1.493A1.492,1.492,0,1,1,46.07,0,1.492,1.492,0,0,1,47.562,1.493Z"/>
          <path class="cls-1" d="M53.135,1.493A1.493,1.493,0,1,1,51.643,0,1.492,1.492,0,0,1,53.135,1.493Z"/>
          <path class="cls-1" d="M58.707,1.493A1.492,1.492,0,1,1,57.215,0,1.492,1.492,0,0,1,58.707,1.493Z"/>
        </g>
        <g>
          <circle class="cls-1" cx="1.492" cy="6.236" r="1.492"/>
          <circle class="cls-1" cx="7.064" cy="6.236" r="1.492"/>
          <circle class="cls-1" cx="12.637" cy="6.236" r="1.492"/>
          <path class="cls-1" d="M19.7,6.236a1.492,1.492,0,1,1-1.492-1.493A1.493,1.493,0,0,1,19.7,6.236Z"/>
          <circle class="cls-1" cx="23.781" cy="6.236" r="1.492"/>
          <circle class="cls-1" cx="29.353" cy="6.236" r="1.492"/>
          <path class="cls-1" d="M36.418,6.236a1.492,1.492,0,1,1-1.492-1.493A1.493,1.493,0,0,1,36.418,6.236Z"/>
          <circle class="cls-1" cx="40.498" cy="6.236" r="1.492"/>
          <circle class="cls-1" cx="46.07" cy="6.236" r="1.492"/>
          <path class="cls-1" d="M53.135,6.236a1.493,1.493,0,1,1-1.492-1.493A1.493,1.493,0,0,1,53.135,6.236Z"/>
          <circle class="cls-1" cx="57.215" cy="6.236" r="1.492"/>
        </g>
        <g>
          <path class="cls-1" d="M2.984,10.979A1.492,1.492,0,1,1,1.492,9.486,1.492,1.492,0,0,1,2.984,10.979Z"/>
          <path class="cls-1" d="M8.557,10.979A1.493,1.493,0,1,1,7.064,9.486,1.492,1.492,0,0,1,8.557,10.979Z"/>
          <path class="cls-1" d="M14.129,10.979a1.493,1.493,0,1,1-1.492-1.493A1.492,1.492,0,0,1,14.129,10.979Z"/>
          <path class="cls-1" d="M19.7,10.979a1.492,1.492,0,1,1-1.492-1.493A1.492,1.492,0,0,1,19.7,10.979Z"/>
          <path class="cls-1" d="M25.273,10.979a1.492,1.492,0,1,1-1.492-1.493A1.492,1.492,0,0,1,25.273,10.979Z"/>
          <path class="cls-1" d="M30.846,10.979a1.493,1.493,0,1,1-1.493-1.493A1.492,1.492,0,0,1,30.846,10.979Z"/>
          <path class="cls-1" d="M36.418,10.979a1.492,1.492,0,1,1-1.492-1.493A1.492,1.492,0,0,1,36.418,10.979Z"/>
          <path class="cls-1" d="M41.99,10.979A1.492,1.492,0,1,1,40.5,9.486,1.492,1.492,0,0,1,41.99,10.979Z"/>
          <path class="cls-1" d="M47.562,10.979A1.492,1.492,0,1,1,46.07,9.486,1.492,1.492,0,0,1,47.562,10.979Z"/>
          <path class="cls-1" d="M53.135,10.979a1.493,1.493,0,1,1-1.492-1.493A1.492,1.492,0,0,1,53.135,10.979Z"/>
          <path class="cls-1" d="M58.707,10.979a1.492,1.492,0,1,1-1.492-1.493A1.492,1.492,0,0,1,58.707,10.979Z"/>
        </g>
        <g>
          <circle class="cls-1" cx="1.492" cy="15.722" r="1.492"/>
          <circle class="cls-1" cx="7.064" cy="15.722" r="1.492"/>
          <circle class="cls-1" cx="12.637" cy="15.722" r="1.492"/>
          <path class="cls-1" d="M19.7,15.722a1.492,1.492,0,1,1-1.492-1.493A1.492,1.492,0,0,1,19.7,15.722Z"/>
          <circle class="cls-1" cx="23.781" cy="15.722" r="1.492"/>
          <circle class="cls-1" cx="29.353" cy="15.722" r="1.492"/>
          <path class="cls-1" d="M36.418,15.722a1.492,1.492,0,1,1-1.492-1.493A1.492,1.492,0,0,1,36.418,15.722Z"/>
          <circle class="cls-1" cx="40.498" cy="15.722" r="1.492"/>
          <circle class="cls-1" cx="46.07" cy="15.722" r="1.492"/>
          <path class="cls-1" d="M53.135,15.722a1.493,1.493,0,1,1-1.492-1.493A1.492,1.492,0,0,1,53.135,15.722Z"/>
          <circle class="cls-1" cx="57.215" cy="15.722" r="1.492"/>
        </g>
        <g>
          <circle class="cls-1" cx="1.492" cy="20.465" r="1.492"/>
          <circle class="cls-1" cx="7.064" cy="20.465" r="1.492"/>
          <circle class="cls-1" cx="12.637" cy="20.465" r="1.492"/>
          <path class="cls-1" d="M19.7,20.465a1.492,1.492,0,1,1-1.492-1.492A1.492,1.492,0,0,1,19.7,20.465Z"/>
          <circle class="cls-1" cx="23.781" cy="20.465" r="1.492"/>
          <circle class="cls-1" cx="29.353" cy="20.465" r="1.492"/>
          <path class="cls-1" d="M36.418,20.465a1.492,1.492,0,1,1-1.492-1.492A1.492,1.492,0,0,1,36.418,20.465Z"/>
          <circle class="cls-1" cx="40.498" cy="20.465" r="1.492"/>
          <circle class="cls-1" cx="46.07" cy="20.465" r="1.492"/>
          <path class="cls-1" d="M53.135,20.465a1.493,1.493,0,1,1-1.492-1.492A1.492,1.492,0,0,1,53.135,20.465Z"/>
          <circle class="cls-1" cx="57.215" cy="20.465" r="1.492"/>
        </g>
        <g>
          <path class="cls-1" d="M2.984,25.208a1.492,1.492,0,1,1-1.492-1.492A1.492,1.492,0,0,1,2.984,25.208Z"/>
          <path class="cls-1" d="M8.557,25.208a1.493,1.493,0,1,1-1.493-1.492A1.492,1.492,0,0,1,8.557,25.208Z"/>
          <path class="cls-1" d="M14.129,25.208a1.493,1.493,0,1,1-1.492-1.492A1.492,1.492,0,0,1,14.129,25.208Z"/>
          <path class="cls-1" d="M19.7,25.208a1.492,1.492,0,1,1-1.492-1.492A1.492,1.492,0,0,1,19.7,25.208Z"/>
          <path class="cls-1" d="M25.273,25.208a1.492,1.492,0,1,1-1.492-1.492A1.492,1.492,0,0,1,25.273,25.208Z"/>
          <path class="cls-1" d="M30.846,25.208a1.493,1.493,0,1,1-1.493-1.492A1.492,1.492,0,0,1,30.846,25.208Z"/>
          <path class="cls-1" d="M36.418,25.208a1.492,1.492,0,1,1-1.492-1.492A1.492,1.492,0,0,1,36.418,25.208Z"/>
          <path class="cls-1" d="M41.99,25.208A1.492,1.492,0,1,1,40.5,23.716,1.492,1.492,0,0,1,41.99,25.208Z"/>
          <path class="cls-1" d="M47.562,25.208a1.492,1.492,0,1,1-1.492-1.492A1.492,1.492,0,0,1,47.562,25.208Z"/>
          <path class="cls-1" d="M53.135,25.208a1.493,1.493,0,1,1-1.492-1.492A1.492,1.492,0,0,1,53.135,25.208Z"/>
          <path class="cls-1" d="M58.707,25.208a1.492,1.492,0,1,1-1.492-1.492A1.492,1.492,0,0,1,58.707,25.208Z"/>
        </g>
        <g>
          <circle class="cls-1" cx="1.492" cy="29.952" r="1.492"/>
          <circle class="cls-1" cx="7.064" cy="29.952" r="1.492"/>
          <circle class="cls-1" cx="12.637" cy="29.952" r="1.492"/>
          <path class="cls-1" d="M19.7,29.952a1.492,1.492,0,1,1-1.492-1.493A1.492,1.492,0,0,1,19.7,29.952Z"/>
          <circle class="cls-1" cx="23.781" cy="29.952" r="1.492"/>
          <circle class="cls-1" cx="29.353" cy="29.952" r="1.492"/>
          <path class="cls-1" d="M36.418,29.952a1.492,1.492,0,1,1-1.492-1.493A1.492,1.492,0,0,1,36.418,29.952Z"/>
          <circle class="cls-1" cx="40.498" cy="29.952" r="1.492"/>
          <circle class="cls-1" cx="46.07" cy="29.952" r="1.492"/>
          <path class="cls-1" d="M53.135,29.952a1.493,1.493,0,1,1-1.492-1.493A1.492,1.492,0,0,1,53.135,29.952Z"/>
          <circle class="cls-1" cx="57.215" cy="29.952" r="1.492"/>
        </g>
        <g>
          <circle class="cls-1" cx="1.492" cy="34.695" r="1.492"/>
          <circle class="cls-1" cx="7.064" cy="34.695" r="1.492"/>
          <circle class="cls-1" cx="12.637" cy="34.695" r="1.492"/>
          <path class="cls-1" d="M19.7,34.7A1.492,1.492,0,1,1,18.209,33.2,1.493,1.493,0,0,1,19.7,34.7Z"/>
          <circle class="cls-1" cx="23.781" cy="34.695" r="1.492"/>
          <circle class="cls-1" cx="29.353" cy="34.695" r="1.492"/>
          <path class="cls-1" d="M36.418,34.7A1.492,1.492,0,1,1,34.926,33.2,1.493,1.493,0,0,1,36.418,34.7Z"/>
          <circle class="cls-1" cx="40.498" cy="34.695" r="1.492"/>
          <circle class="cls-1" cx="46.07" cy="34.695" r="1.492"/>
          <path class="cls-1" d="M53.135,34.7A1.493,1.493,0,1,1,51.643,33.2,1.493,1.493,0,0,1,53.135,34.7Z"/>
          <circle class="cls-1" cx="57.215" cy="34.695" r="1.492"/>
        </g>
        <g>
          <path class="cls-1" d="M2.984,39.438a1.492,1.492,0,1,1-1.492-1.493A1.492,1.492,0,0,1,2.984,39.438Z"/>
          <path class="cls-1" d="M8.557,39.438a1.493,1.493,0,1,1-1.493-1.493A1.492,1.492,0,0,1,8.557,39.438Z"/>
          <path class="cls-1" d="M14.129,39.438a1.493,1.493,0,1,1-1.492-1.493A1.492,1.492,0,0,1,14.129,39.438Z"/>
          <path class="cls-1" d="M19.7,39.438a1.492,1.492,0,1,1-1.492-1.493A1.492,1.492,0,0,1,19.7,39.438Z"/>
          <path class="cls-1" d="M25.273,39.438a1.492,1.492,0,1,1-1.492-1.493A1.492,1.492,0,0,1,25.273,39.438Z"/>
          <path class="cls-1" d="M30.846,39.438a1.493,1.493,0,1,1-1.493-1.493A1.492,1.492,0,0,1,30.846,39.438Z"/>
          <path class="cls-1" d="M36.418,39.438a1.492,1.492,0,1,1-1.492-1.493A1.492,1.492,0,0,1,36.418,39.438Z"/>
          <path class="cls-1" d="M41.99,39.438A1.492,1.492,0,1,1,40.5,37.945,1.492,1.492,0,0,1,41.99,39.438Z"/>
          <path class="cls-1" d="M47.562,39.438a1.492,1.492,0,1,1-1.492-1.493A1.492,1.492,0,0,1,47.562,39.438Z"/>
          <path class="cls-1" d="M53.135,39.438a1.493,1.493,0,1,1-1.492-1.493A1.492,1.492,0,0,1,53.135,39.438Z"/>
          <path class="cls-1" d="M58.707,39.438a1.492,1.492,0,1,1-1.492-1.493A1.492,1.492,0,0,1,58.707,39.438Z"/>
        </g>
        <g>
          <circle class="cls-1" cx="1.492" cy="44.181" r="1.492"/>
          <circle class="cls-1" cx="7.064" cy="44.181" r="1.492"/>
          <circle class="cls-1" cx="12.637" cy="44.181" r="1.492"/>
          <path class="cls-1" d="M19.7,44.181a1.492,1.492,0,1,1-1.492-1.493A1.492,1.492,0,0,1,19.7,44.181Z"/>
          <circle class="cls-1" cx="23.781" cy="44.181" r="1.492"/>
          <circle class="cls-1" cx="29.353" cy="44.181" r="1.492"/>
          <path class="cls-1" d="M36.418,44.181a1.492,1.492,0,1,1-1.492-1.493A1.492,1.492,0,0,1,36.418,44.181Z"/>
          <circle class="cls-1" cx="40.498" cy="44.181" r="1.492"/>
          <circle class="cls-1" cx="46.07" cy="44.181" r="1.492"/>
          <path class="cls-1" d="M53.135,44.181a1.493,1.493,0,1,1-1.492-1.493A1.492,1.492,0,0,1,53.135,44.181Z"/>
          <circle class="cls-1" cx="57.215" cy="44.181" r="1.492"/>
        </g>
        <g>
          <path class="cls-1" d="M2.984,48.924a1.492,1.492,0,1,1-1.492-1.492A1.492,1.492,0,0,1,2.984,48.924Z"/>
          <path class="cls-1" d="M8.557,48.924a1.493,1.493,0,1,1-1.493-1.492A1.492,1.492,0,0,1,8.557,48.924Z"/>
          <path class="cls-1" d="M14.129,48.924a1.493,1.493,0,1,1-1.492-1.492A1.492,1.492,0,0,1,14.129,48.924Z"/>
          <path class="cls-1" d="M19.7,48.924a1.492,1.492,0,1,1-1.492-1.492A1.492,1.492,0,0,1,19.7,48.924Z"/>
          <path class="cls-1" d="M25.273,48.924a1.492,1.492,0,1,1-1.492-1.492A1.492,1.492,0,0,1,25.273,48.924Z"/>
          <path class="cls-1" d="M30.846,48.924a1.493,1.493,0,1,1-1.493-1.492A1.492,1.492,0,0,1,30.846,48.924Z"/>
          <path class="cls-1" d="M36.418,48.924a1.492,1.492,0,1,1-1.492-1.492A1.492,1.492,0,0,1,36.418,48.924Z"/>
          <path class="cls-1" d="M41.99,48.924A1.492,1.492,0,1,1,40.5,47.432,1.492,1.492,0,0,1,41.99,48.924Z"/>
          <path class="cls-1" d="M47.562,48.924a1.492,1.492,0,1,1-1.492-1.492A1.492,1.492,0,0,1,47.562,48.924Z"/>
          <path class="cls-1" d="M53.135,48.924a1.493,1.493,0,1,1-1.492-1.492A1.492,1.492,0,0,1,53.135,48.924Z"/>
          <path class="cls-1" d="M58.707,48.924a1.492,1.492,0,1,1-1.492-1.492A1.492,1.492,0,0,1,58.707,48.924Z"/>
        </g>
        <g>
          <path class="cls-1" d="M2.984,53.667a1.492,1.492,0,1,1-1.492-1.492A1.492,1.492,0,0,1,2.984,53.667Z"/>
          <path class="cls-1" d="M8.557,53.667a1.493,1.493,0,1,1-1.493-1.492A1.492,1.492,0,0,1,8.557,53.667Z"/>
          <path class="cls-1" d="M14.129,53.667a1.493,1.493,0,1,1-1.492-1.492A1.492,1.492,0,0,1,14.129,53.667Z"/>
          <path class="cls-1" d="M19.7,53.667a1.492,1.492,0,1,1-1.492-1.492A1.492,1.492,0,0,1,19.7,53.667Z"/>
          <path class="cls-1" d="M25.273,53.667a1.492,1.492,0,1,1-1.492-1.492A1.492,1.492,0,0,1,25.273,53.667Z"/>
          <path class="cls-1" d="M30.846,53.667a1.493,1.493,0,1,1-1.493-1.492A1.492,1.492,0,0,1,30.846,53.667Z"/>
          <path class="cls-1" d="M36.418,53.667a1.492,1.492,0,1,1-1.492-1.492A1.492,1.492,0,0,1,36.418,53.667Z"/>
          <path class="cls-1" d="M41.99,53.667A1.492,1.492,0,1,1,40.5,52.175,1.492,1.492,0,0,1,41.99,53.667Z"/>
          <path class="cls-1" d="M47.562,53.667a1.492,1.492,0,1,1-1.492-1.492A1.492,1.492,0,0,1,47.562,53.667Z"/>
          <path class="cls-1" d="M53.135,53.667a1.493,1.493,0,1,1-1.492-1.492A1.492,1.492,0,0,1,53.135,53.667Z"/>
          <path class="cls-1" d="M58.707,53.667a1.492,1.492,0,1,1-1.492-1.492A1.492,1.492,0,0,1,58.707,53.667Z"/>
        </g>
      </g>
    </g>
  </g>
</svg>
