<svg xmlns="http://www.w3.org/2000/svg" xmlns:xlink="http://www.w3.org/1999/xlink" viewBox="0 0 175.629 56.843">
  <defs>
    <style>
      .cls-1 {
        fill: url(#Degradado_sin_nombre_40);
      }
    </style>
    <linearGradient id="Degradado_sin_nombre_40" data-name="Degradado sin nombre 40" y1="28.421" x2="175.629" y2="28.421" gradientUnits="userSpaceOnUse">
      <stop offset="0" stop-color="#c2c2c2"/>
      <stop offset="0.997" stop-color="#262626"/>
    </linearGradient>
  </defs>
  <title>1sssxx</title>
  <g id="Шар_2" data-name="Шар 2">
    <g id="z">
      <path class="cls-1" d="M2.931,11.552,0,10.563C.831,11.4,1.688,12.169,2.931,11.552ZM137.618,47.787c-.008.156-.015.311-.022.467a14.148,14.148,0,0,0,1.457-.017c.169-.018.318-.238.476-.366-.175-.116-.358-.338-.526-.327A11.219,11.219,0,0,0,137.618,47.787ZM1.913,10.21c.453-.279.881-.6,1.316-.909q-.174-.24-.346-.482L1.537,9.849C1.667,9.976,1.876,10.233,1.913,10.21ZM175.629,26.789c-1.169-1.19-.182-2.476-.017-3.676l-1.864.167-.174-.373c1.1-.149,1.41-.673,1.06-1.41l-1.756.463,1.139-1.566-1.513-.362,1.292-1.078L171.94,17.2a5.227,5.227,0,0,0-.955-2.964,5.006,5.006,0,0,1-.721-1.443,13.81,13.81,0,0,1-.33-1.786c-1.124,1.449-1.344.156-1.9-.051a12.225,12.225,0,0,0-2.062-.382V9.109h-.982c.088.419.158.75.259,1.228-.471-.21-1.072-.307-1.12-.526-.321-1.463-1.291-1.02-2.406-.786.236-.467.405-.8.583-1.156-.153-.339-.351-.777-.491-1.084-.441-.113-1.09-.137-1.135-.314a17.332,17.332,0,0,1-.314-2.379l-1.85-.506.376-1.179c-1.7.536-4.044.195-4.461-.557.059-.181.118-.365.322-.992L152.5,1.8c-.007-.041-.049-.289-.108-.634-.311.143-.559.37-.754.331-1.733-.342-3.45-.829-5.234-.317a.576.576,0,0,1-.335.041,4.588,4.588,0,0,0-2.789-.28,16.883,16.883,0,0,1-3.338.086c-.352-.009-.821-.453-1.028-.334-1.407.806-2.888-.215-4.288.252a5.276,5.276,0,0,1-.736.126c-.813-.889-1.782.3-2.746.168a25.987,25.987,0,0,0-3.3-.031l-.17-.259L125.721.661a5.587,5.587,0,0,1-1.862.635,19.04,19.04,0,0,1-3.145-.5c-.228-.04-.55-.208-.667-.115-.809.647-1.3.115-1.809-.416-.036-.039-.147-.005-.31-.005v.794c-.782-.427-1.471-1.858-1.974-.435A18.056,18.056,0,0,1,114,.979,13.45,13.45,0,0,1,112.305.9c-.434,1.273-1.33.347-2.015.514l-1.318.219L108.9,1.3l.509-.357a9.76,9.76,0,0,1-7.383-.523c.15.956-.254,1.321-1.116,1.059-.334-.1-.751-.363-1-.253-1.653.73-3.353-.236-5.108.3-1.152.353-2.669-.509-4.03-.795A3.928,3.928,0,0,0,89.178.57c-1.4.323-2.773.777-4.033,1.143L82.793.934l-.144.306c.116.174.232.349.492.738-.681-.357-1.536.287-1.661-.841-.009-.081-.33-.179-.5-.172a.472.472,0,0,0-.348.268c-.237.844-.625,1.153-1.276.629-1.035-.832-1.605-.467-1.97.19a13.351,13.351,0,0,1-2.43.1,11.134,11.134,0,0,1-2.041-.685c.1.635.181,1.111.259,1.586l-.3.076-1.2-1.377-.772.876L69.894,1.5c.717,1.289-1.07.946-.8,1.934-.967-1.626-1,.07-1.24.058L65.8,1.1,63.738,3.584c-.135-.493-.257-.935-.417-1.517l-.842.749-3.974-.46.608,1.165-.174.212-.558-.3-3.17.54,1.034-1.2-.127-.093-.729.656c-.033-.145-.065-.29-.1-.436-1.473-.539-2.947-1.092-4.373,1.02V2.431a5.592,5.592,0,0,1-1.211.811,1,1,0,0,1-.907-.214c-.4-.7-.833-.76-1.46-.326a.938.938,0,0,1-.692.186c-.908-.3-1.336-.049-1.23.626l-4.39.266-2.723-.414.371,1.364c-.53-.429-.885-.954-1.294-1a15.756,15.756,0,0,0-3.023.046c-.277.023-.523.349-.8.516-.22.134-.518.391-.679.329a19.869,19.869,0,0,1-1.834-.906l-.2.326.938.708c-.394.42-.634.836-1.073-.038a.843.843,0,0,0-1.455-.236,1.89,1.89,0,0,1-2.9.333c-.131-.1-.362-.059-.68-.1l.415,1.242-2.2-1.3c-.514.558-.883,1.3-1.4,1.427-.542.133-1.229-.326-1.856-.52a1.053,1.053,0,0,0-.353-.042c-.052,0-.1.08-.248.21l.828.439c-.085.092-.168.184-.252.276a4.033,4.033,0,0,0-.5-.226c-.212-.066-.435-.1-.648-.14l.06.879L16.843,5.733c-.263.635-.405.977-.569,1.375a2.824,2.824,0,0,1-.718-.421c-.9-1.088-1.745-.954-2.606.034-.049.056-.227,0-.345-.007l2.233.436c-.033.158-.132.624-.231,1.091l-1.773-.677-.981.7c-.126-.554-.226-.993-.325-1.433h-1.3c.088.583.175,1.163.294,1.962-1-.482-.895-1.431-1.955-1.49-1.846-.1-1.836-.266-2.364.421l.726.12c-.027.114-.054.227-.082.34L4.881,7.518l-.108.4,1,.3c-.065.389-.126.757-.233,1.4a7.357,7.357,0,0,0-1.065-.991c-.211-.125-.545-.041-.825-.051.58,1.137-.19,1.865-.787,2.655-.04.053.047.2.084.313a10.082,10.082,0,0,1,1.729-.676c1.324-.267,1.333-.225,1.519.5-1.252.125-2.408.951-2.519,1.774l.838-.277c.074.229.267.508.2.678a6.582,6.582,0,0,1-.682,1.074c-.339.762.116.94.847.662l-.368,1.379H5.792l-.624,2.817c1.9-.383,1.863.984,1.841,2.341l.325-.006,1.08-1.332.276.21-.646.993a3.084,3.084,0,0,0,.845.312,2.594,2.594,0,0,0,.782-.146c.058.78.107,1.447.152,2.069l-1.473.819.923,2.206c.478-.067.867-.128,1.259-.159a1.205,1.205,0,0,1,.076.388c-.332.136-.679.237-1.031.35-.022.422-.048.919-.074,1.416l-.337.084c-.3-.4-.6-.791-.812-1.076l-1.483,1.38.7,1.136L5.815,31.852l.887.812c-.028.577-.048.992-.068,1.406l1.778-.627c.32.658-.728,1.668-2.259,1.9.057,1.718.057,1.718-1.722,1.57l.18,1.15-1.53.112c-.326.423-.53.96-.893,1.108-1,.409-.633.888-.151,1.457-1.284.45-.592,1.4-.4,2.008.159.5.9.815,1.462,1.279-.243.605-1.319,1.452.11,2.085l1.163-.115-.364.671,1.95.443c-.012.1-.024.21-.035.315a2.862,2.862,0,0,0,.445-.134c.62-.3,1.171-.669,1.45.452.059.236.388,1.3,1.34.867.1-.047.569.571.777.933.112.193.034.5.041.751l.979-.129c-.2-.351-.311-.543-.421-.735l.235-.187c.809.8.994,2.212,2.271,2.565H11.348L13.287,53.5c0-.025.048-.267.1-.574.6.2,1.1.324.556,1.049a9.057,9.057,0,0,0-.634,1.117l2.075.382v1.374l1.356-1.527.216,1.38c1.189-1,2.912.868,3.733-1.015.908.381,1.351.126,1.735-1.115.841,1.476,2.065,1.391,3.378.929.439.916.906,1.018,1.5.382a1.308,1.308,0,0,1,.826-.443,17.943,17.943,0,0,1,1.843.248,4.441,4.441,0,0,0,.753-.035c-.067-.273-.133-.547-.179-.739l1.749-.273c-1.141-.693-.158-.872.086-1.249.4.45.881.777,1.035,1.219.3.868.8.7,1.381.439.2-.091.405-.363.574-.337,1.127.175,2.246.407,3.255.6.234-.43.43-.788.625-1.147l.255.087.246,1.177c.224-.524.333-.777.442-1.031l.137.307,2.092-.819c.347-1.287.527-1.412,1.665-.942l-.881.275c.137.426.256.794.423,1.311l1.8-.661v1.31l.737-.954,2.782-.206-.8-1.463c1.36.768,2.152,1.906,3.615,1.48,1.177-.343,2.32-.6,2.747-1.984l1.246-.1.086,1.052c.714-.373,1.271-.678,1.84-.958.548-.27,1.111-.732,1.553.2.065.138.592.14.872.071s.488-.348.76-.456a2.3,2.3,0,0,1,.7-.056l-.319.8,3.774.2c-.082-.184-.2-.439-.311-.7l.214-.233.854.614L70,51.794c-.16-.362-.269-.606-.491-1.108h2.57l-1.558,1.458.189.357c.832-.851,1.589-1.061,2.494-.151.22.223,1.159.065,1.5-.229.977-.842,1.238-.9,2.19.11.809-.663,1.329-.275,1.812.706.183-.58.312-.987.443-1.4.421.056,1.065-.037,1.228.2.408.6.61.765,1.218.193.359-.337,1.143-.24,1.471-.587.741-.783.675-.846,1.483-.566l-.632.3c.193.163.41.485.574.46a3.09,3.09,0,0,0,1.364-.478c.165-.125.013-.66.024-1.008s.047-.709.072-1.063l1.028.108-.928.544c.206.427.4.823.515,1.065l1.739-1.332c.114.142.229.283.343.424l-1.045.875c.617-.11,1.281.844,1.879-.076.181-.278.084-.737.122-1.207l.852.364c-.05.44-.091.8-.164,1.454l2.3-1.161-.1-.288-1.1.057-.085-.431c.55-.1,1.1-.211,1.653-.3a3.878,3.878,0,0,0,.99-.145,4.609,4.609,0,0,0,.877-.708c.72.818,1.4,1.182,2.373.664.287-.154.724-.026,1.093-.026-.125.309-.249.619-.483,1.2l4.024,1.161c.421-.535.781-.992,1.123-1.428l-1.261-.3.075-.344a4.469,4.469,0,0,1,1.343.3c.324.187.5.636.856,1.138.329-1.589-.142-1.844,1.949-1.9l.871-.863,1.468,2.491,1.593-.181-.479-.991c.834.4,1.548.92,2.132-.2a1.1,1.1,0,0,1,1.025-.333c.841.363,1.319-.127,1.861-.57a1.1,1.1,0,0,1,.3-.124l.563.9.989-1.047c1.521.908,3,.333,4.66-.024l.558.728,2.337-.978c.092.2.185.4.278.6l-1.42.691L123.9,50.3l.755-.513-.835-.275,0-.192,2.674-.5c-.019-.132-.038-.263-.058-.395h-1.974c-.015-.151-.031-.3-.046-.453.87-.073,1.74-.159,2.612-.19.061,0,.137.4.1.3l2.977-.505.1.309-.746.643,2.338.706-.155-.454c.66-.428,1.641.183,2.579-.223l-2.206-.751c1.817-.845,2.956.045,4.071,1.029l.219-.3-1.037-.714.735-1.085.532,1.01c.428-.532.782-.974,1.117-1.389l2.544.767-.006.279,2.246-1.252,2.786,1.87.223-.248-.981-.7.536-.152-.549-.939.153-.332c1.781,1.887,2.638.209,3.595-.793l.484.931.821-.687.518.331,3.137-1.486V45.38a9.368,9.368,0,0,1,2.345-.92,8.092,8.092,0,0,1,2.316.482l1,.821.264-.144c-.233-1.1.331-1.986,1.207-1.573,1.239.583,2.222-.374,3.322-.086.122.032.305-.173.616-.365l-.907-.119c0-.145,0-.289,0-.433.39.023.916-.1,1.138.105a5.1,5.1,0,0,1,.756,1.438c.324-.783.754-1.333.713-1.845-.053-.663,0-1.074.69-.944.215.041.318.672.557,1.23.157-.008.687.123.881-.075a1.149,1.149,0,0,1,1.63-.3c.1.062.568-.185.581-.317a10.3,10.3,0,0,0-.042-1.5l-1.56,1.015-.2-.274c.216-.492.431-.985.73-1.668l-1.392.543c.228-.534.358-.839.482-1.131,1.838.429,1.95.374,2.741-1.3l-1.364.963-.2-.176q.236-.9.471-1.791l-.24-.077c-.245.374-.489.748-.749,1.144a1.889,1.889,0,0,1,.877-3.044l-1.337-.648c.414-1.19.155-1.691-1.075-1.973.079.276.153.529.284.984l-1.533-.98,3.189-1.093c-.02-.081-.04-.162-.061-.243h-2.552c.02-.04.128-.442.24-.443.945-.009,1.891.056,2.793.1.622-.5,1.471-1.6,1.905-1.454,1.4.466.589-.477.636-.637ZM2.931,11.552l.008,0,.014.006-.006-.015-.015.006Z"/>
    </g>
  </g>
</svg>
