<svg xmlns="http://www.w3.org/2000/svg" xmlns:xlink="http://www.w3.org/1999/xlink" viewBox="0 0 176.105 53.532">
  <defs>
    <style>
      .cls-1 {
        fill: url(#Degradado_sin_nombre_62);
      }
    </style>
    <linearGradient id="Degradado_sin_nombre_62" data-name="Degradado sin nombre 62" y1="26.766" x2="176.105" y2="26.766" gradientUnits="userSpaceOnUse">
      <stop offset="0" stop-color="#5b5b5b"/>
      <stop offset="0.993" stop-color="#05050F"/>
    </linearGradient>
  </defs>
  <title>1title_bg_3</title>
  <g id="Шар_2" data-name="Шар 2">
    <g id="z">
      <path class="cls-1" d="M166.88,12.171l-.062.066.368.124ZM12.479,19.4h0l0,0c-.334,1.007-.334,1.007.21,1.226l1.674-2.744-.659-.255L12.475,19.4l-.035.008.01.028Zm9.056-6.132c.011-.291-.534-.6-1-1.081-.063.871-.1,1.426-.144,1.982l.413.215C21.066,14.012,21.52,13.648,21.535,13.267ZM3.889,26l1.388-.113c-.1-.481-.186-.911-.332-1.625-.122.524-.175.749-.227.973H4.484c-.09-.824-.18-1.649-.287-2.625C2.83,23.745,4.238,24.921,3.889,26ZM0,24.408H3.269A2.506,2.506,0,0,0,0,24.408Zm119.27-6.823c-.271-.032-.542-.063-.813-.1l-.257-.036-1.025,1.57a5.085,5.085,0,0,0,1.263-.449A6.153,6.153,0,0,0,119.27,17.585Zm-65.819.385h0C53.462,18.047,53.47,18.077,53.451,17.97ZM172.676,38.061l1.386-1.55-.766-.062c.1-.806-.493-.619-.944-.685s-.907-.2-1.374-.3l.346-.676c-1.09.112-2.147.7-2.719-.49l-2,.634c.056-.224.1-.4.213-.855a10.8,10.8,0,0,1-2,.389c-.836,0-1.917.1-2.442-.359-.593-.518-.687-1.609-1.085-2.685l-1.1,1.521-.286-.234.553-1.274-1.106.655c.267-1.208.275-1.244,1.242-1.04a11.473,11.473,0,0,0,2.484.627,10.642,10.642,0,0,0,2.54-.632,5.831,5.831,0,0,1,1-1.775,5.749,5.749,0,0,1,1.883-.621c-.453-.484-.74-.792-1.027-1.1l.061-.291c.707.287,1.6.841,1.12-.569-.022-.067.188-.2.266-.316.225-.341.437-.691.655-1.037-.548.313-2.338.547-2.74.174-.115-.106-.214-.4-.151-.492a.89.89,0,0,1,.555-.34c.19-.024.4.123.717.237-.043-.425-.071-.715-.109-1.1-1.916,1-1.884-1.027-2.6-1.663l-.594,1.4c-.368-.666-.563-1.017-.793-1.433l-.7.448-1.3-1.143.275-.5-1.2.382c-.081-.561-.148-1.026-.213-1.473a5.46,5.46,0,0,0-1.121-.2,6.672,6.672,0,0,0-1.183.239,2.416,2.416,0,0,0-2.381-.747c.062.2.126.419.16.535l-2.249.651.468-1.053-.274-.227-1.3,1.114c-.152-.4-.3-.79-.484-1.27l-1.376,1.6c-.681-.5-1.291-.649-1.535.385l-7.2-1.7.509.831-.148.124-.7-.408c-.46.2-.763.438-.925.366a1.2,1.2,0,0,1-.619-.686c-.085-.321.095-.705.063-1.052-.015-.159-.261-.3-.4-.445a2.105,2.105,0,0,0-.322.547,6.447,6.447,0,0,0-.087.946l-.908-.8-.775,1.493-1.461-.575-.963,1.067c-.312-.645-.532-1.1-.632-1.3-.584.537-1.24,1.14-2.135,1.961V19.341l-.708,1.149c-.731-.194-1.747-.048-2.1-1.379-.125-.47-.821-.787-1.258-1.175.74-.915,1.464-.52,3.18,1.816l.276-.165a3.845,3.845,0,0,1-.532-.925,8.932,8.932,0,0,1-.143-1.443l.279-.179q.394.9.791,1.8l.5-.465-.3.992.846-1.608c.028.115.055.23.082.344.883,0,1.766,0,2.649-.01.052,0,.083-.183.156-.225.412-.236.831-.459,1.252-.679a4.206,4.206,0,0,1,.543-.14l-1.192-.166c.019-.19.035-.336.04-.392l-2.4.321-.584-.51c2.107.634.734-.707,1.363-1.017l.843.766c.174-.262.315-.473.3-.45l2.588.243-.762-1.111,2.911.409-1.817.553,2.109,1.37-.329.188q-.085.553-.17,1.107c.316-.119.636-.228.946-.359a3.617,3.617,0,0,1,.5-.269c1.051-.242,2.107-.462,3.348-.73-.97-.819-.97-.819-2.838.206l1.027-1.391-.312-.376a1.408,1.408,0,0,1,.523.025c1.287.605,2.584.8,2.828-1.278l2.576,1.327c.083.395.235,1.115.343,1.626l1.813-2.176.546,1.691c.56-1.49,1.552-1.1,2.815-.545l-.828-.871c.685-.213,1.295-.434,1.921-.587.555-.136,1.267-.453,1.668-.239,1.128.6,1.368.038,1.677-.86q-.06.957-.118,1.916c.412-1.012.868-.7,1.473-.279a3.692,3.692,0,0,0,1.39.459,6.375,6.375,0,0,0,1.071.07l3.313-3.486-.635-.214,1.014-1.207L168.05,10l-1.03-.474.577.184.067-.134-2.1-1.76-1.133,1.023.688.09c-.148.581-.272,1.065-.4,1.55l-.3.132c-.349-.973-.7-1.945-1.052-2.925l-.354.185c-.057-.24-.113-.475-.226-.953-.165.959-.285,1.662-.438,2.553l-.851-.994-.874.7-.348-.131c.1-.449.209-.9.322-1.381l-.783-.921,1.782-.75c-.653,1.377-.488,1.939.423,2.146,0-.478-.023-.97,0-1.458.033-.563.11-1.123.182-1.818l-.6.535-.231-.121.87-1.719-.4-.236-.993,1.609c-1.291-1.05-1.291-1.05-.467-1.423l-.144-.3-1.789.97-.73-.925-.245.372-.6.6-.928-1.254c-.123.151-.306.575-.616.715a4.434,4.434,0,0,1-1.7.4,2.955,2.955,0,0,1-1.136-.458c-.264-.123-.511-.281-.77-.415a5.079,5.079,0,0,0-.811-.384c-.6-.18-1.212-.316-1.839-.476.235,1.09-.692,1.25-1.526,1.46-.282-.713-.554-1.4-.713-1.8a6.242,6.242,0,0,0-1.487-.155c-.932.168-1.71-1.748-2.609-.212L141.2.867c.192.419.3.667.589,1.289l-1.864-.476c-.532.821-3.463.361-4.15-.845l-.753,1.739a4.578,4.578,0,0,0-.829-1.483c-.334-.281-.989-.181-1.524-.254l-.091.531c-1-.932-3.629-.319-4.5.959-.4-.654.573-1.717-.793-2.17l-1.024,1.378c-.853-.255-.955-.654-.29-1.14-1.5-1.322-1.265,1.1-2.266,1.077-.032-.382-.059-.7-.062-.738L121.239.258l-.85,1.253C118.751.436,116.855.2,116.334.85l1.818,1.57V1.291l1.3.731-.914.99a14.715,14.715,0,0,0-1.479-.923c-.76-.363-1.549-1.166-2.4-.475A6.3,6.3,0,0,0,113.55,3.4l-.647-2.06-.288.034-.238,1.352c-.8-.24-1.247-.645-.494-1.478-.5.163-.975.482-1.318.377-.281-.086-.408-.676-.613-1.06l-.747,1.5-.354,0c.178-1.033.042-1.585-1.143-1.33A6.282,6.282,0,0,1,105.6.441v.852C104.9,1.117,104.3,1,103.73.8c-.237-.081-.415-.333-.621-.508a5.341,5.341,0,0,0-.623.948c-.087.214.027.509.058.834l-.893-.086.065-1.417-.25-.034-.733.97c-.348-.3-.743-.8-.866-.738-.925.454-1.248-.237-2-.7.09.467.179.933.311,1.62l-.939-.669L94.914,2.366l-.191-.91L93.1,2.132V1.514c-.4,0-.934.163-1.136-.029-.861-.817-1.219-.145-1.721.606L88.9.177v.93l-.215-.22c-.693.644-1.365,1.312-2.089,1.919a2.261,2.261,0,0,1-1.2.648,4.54,4.54,0,0,1-1.473-.514l2.395-.189c-.651-1.1-1.1-.877-1.353-.386l-2.378-.327-.945-.886-.247.212c.091.262.183.524.23.658-.67.07-1.461-.076-1.8.248-.378.365-.346,1.155-.579,2.119L78.7,2.53c-1.732-.041-3.468-.287-3.679,2.351-.3-.942-.5-1.57-.7-2.2l-.427.008-.3,1.5-1.8-.656-.566,1.008.613.828c-.527.637-.852.481-1.247-.1a1.4,1.4,0,0,0-.959-.6c-1.094.014-2.221.276-2.8-1l-.9.489V2.943c-.821.551-1.247,1.421-1.939,1.783a6.574,6.574,0,0,1-2.456.212c.042.241.087.5.121.694-.883.485-2.294.277-1.867,2.2L56.557,6.385c.042-.13.083-.26.125-.39l1.256.134c-.1-.416-.166-.714-.21-.9l-1.618.343-.694,1.36-1.07-1.251c-.279.572-.529,1.082-.8,1.646-.937-1.407-.937-1.407-2.287-.085-.708-.35-1.574-1.08-1.905-.888a3.489,3.489,0,0,1-3.569.007c.15.7.271,1.27.33,1.544-.524-.09-1.114-.388-1.409-.207A33.477,33.477,0,0,0,41.9,9.8c-.58-.63-1.386-1.18-.05-1.95a5.337,5.337,0,0,0-2.124.129c-1.078.428-2.013,1.229-3.323.773-.3-.1-.737.191-1.1.3.124,1.086.124,1.086-1.106,1l-.454-1.1-.5.259,1.346,2.214-2.113-.795c.024-.125.068-.354.136-.7-1.394.963-2.265,2.521-4.148,2.365l-.487,1.063-1.927-2.892v2.98l-.366,0-.075-1.394-2.326,1.321-.135-.178.307-.513-.261-.259a16.414,16.414,0,0,0-1.979,2.365H18.673l.709-.781-1.892-.16.554.756-2.357.35c-.118.815-.2,1.394-.288,2,.151.231.363.575.6.9.149.209.329.4.5.593a2.591,2.591,0,0,0-.631-.232.6.6,0,0,0-.43.2c-.473.516-.943,1.037-1.375,1.587-.287.364-.508.78-.759,1.173l.279.224,1.2-.247c-.816,1.226-1.824.492-2.674.151-.172.566-.294.966-.481,1.583-.286-.377-.52-.553-.493-.67.2-.883.431-1.761.714-2.62.038-.116.373-.135.595-.191-.148-.438-.3-.875-.453-1.335-1.365.565-.368,2.5-2.026,3.012V18.47l.636.862.2-.093c-.03-.464-.059-.928-.088-1.378l-1.1-.318-.491,1.242a12.082,12.082,0,0,0-1.406.6,6.961,6.961,0,0,0-.92.763l-.3-.212V21.65h.94l-.735-.494.125-.242,2.262.66L7.686,22.951c-.408-.238-1.668.455-1.592-1.126l-1.113.2c.259,1.162.5,2.27.8,3.588l.988-1.825.709.549-.022-.315,1.968-.7q.105.246.211.492c-.287.149-.583.284-.858.452-.354.216-.691.46-1.035.691.313.24.6.607.949.677a1.127,1.127,0,0,0,.847-.485c.469-.664.963-.733,1.556-.231a6.125,6.125,0,0,1,.6.728c-.21-1.7.6-2.846,1.8-2.8l-.669,1.61,2.594.371-1.163-.76c.525-.229.673-.984,1.562-.281.438.347,1.921.247,2.021-.009.4-1.011.916-.892,1.545-.551.156-.819.31-1.629.464-2.439l.386.059c.034.528.068,1.056.1,1.589l.813-.2c.1.125.223.329.269.313,1-.358,1.437.151,1.73,1.05l.307-1.369,1.833.324.066-.254-1.334-.584.061-.3.971.129c.073-.218.145-.434.218-.649l.115.373a4.4,4.4,0,0,0,1.609.031A6.773,6.773,0,0,0,28.52,20.2c.007.029.059.252.11.474l.093-.32a11.96,11.96,0,0,0,1.707.392c.26.025.547-.239.822-.373H33.3l-1.11-1.771c1.16-.54,1.148.513,1.5,1.157,1.785-.736,1.388.989,2.1,1.7v-1.2c1.493.018.074-1.3.8-2,.116.325.221.619.241.677l1.441-.88c.062.069.123.139.184.208L36.62,20.45l1.9,1.543c-.216-.789-.382-1.395-.5-1.828,1.4-2.025,3.556-.99,5.454-1.66-.123.554-.189.855-.222,1l2.657.874c.033-.1.065-.2.1-.295l-1.163-.657.131-.308,1.414.09c.055.605.107,1.165.158,1.726.282-1.405,1.14.564,1.53-.291-.186-.086-.371-.173-.679-.318l1.031-.881c.173.7.3,1.225.449,1.833l.79.372a11.774,11.774,0,0,1-1.15,1.165,6.723,6.723,0,0,1-1.168.6c-.055-.124-.11-.247-.166-.37l.788-.479-.108-.219-1.284.373q.169-.212.337-.424c-.275-.089-.579-.292-.818-.234a1.27,1.27,0,0,0-.625.587c-.3.491-.213,1.273-1.121,1.283-.647.007-1.293.139-2.152.239.243-.283.455-.505.636-.749.2-.266.365-.553.547-.833-1.454-.774-2.2-.515-3.517,1.191-.631-.442-1.2-.712-1.833.1a.751.751,0,0,1-1.229.015c-.239-.349-.533-.66-.87-1.072-.05.729-.091,1.35-.145,2.145-.827-.526-1.421-1.266-2.081-.4a9.142,9.142,0,0,1,.7.774c.024.032-.234.338-.257.326-.472-.257-.929-.542-1.388-.822l-.339-.522-.585,1.61-.428-.4.819-1.289-1.178.275c.031.394.062.8.094,1.216l-2.212-.183.108.211-2.751,1.1c-.1-.383-.2-.772-.34-1.327-.193.443-.316.725-.436,1l-1.085-.422c-.628,1.3-1.579,1.433-2.789.947a1.479,1.479,0,0,0-.983.227,4.946,4.946,0,0,0-.919.665,2.554,2.554,0,0,1-2.825.346c-.187-.079-.5.136-.775.223l.574.659-.248.349a5.878,5.878,0,0,1-1.142-.748c-.761-.8-1.075-.4-1.214.166l-1.227.346c.017.076.033.152.05.228h1.051l-1.218.678.374.736L11.594,30.7l.956-1.149-.138-.27a9.226,9.226,0,0,0-1.86.8A6.959,6.959,0,0,0,9.393,31.6c-.113-.514-.233-1.061-.358-1.625a4.194,4.194,0,0,1-.554,1.145c-.9.93-2.477,1.451-1.8,3.005L5.6,35.248l1.474.721A5.35,5.35,0,0,0,7.8,37.358a13.163,13.163,0,0,0,1.774,1.435l-.3.339a9.006,9.006,0,0,0-.844-.771,1.727,1.727,0,0,0-.731-.274c-.058-.008-.273.35-.226.439a1.975,1.975,0,0,0,.549.618,5.712,5.712,0,0,0,.8.431l-2.287.838c.066-.668.129-1.313.192-1.958l-.4-.131c-.352.937-.7,1.874-1.125,2.988l.693.286L6.9,43.648l.3-.085-.429.775c-1.26-.538-1.352-.488-1.611.617a1.491,1.491,0,0,1-.418.57,2.162,2.162,0,0,0-.667,2.524L2.865,46.956c-.283.531-.521.979-.766,1.441L4,48.3a1.657,1.657,0,0,0,.891,2.29L4.217,51.66,7.1,53.532C7.031,53,6.959,52.4,6.887,51.8l.229-.039L7.6,53.1a14.312,14.312,0,0,1,2.914-1.083c.963-.136.844-.5.4-1.342.4.31.723.445.724.583.007.852.173,1.271,1.012.544a.325.325,0,0,1,.317.006c.771.809,1.373.046,2-.228,1.288-.56,2.555-1.135,3.863.075.047-.668.085-1.209.124-1.751l.308-.123c.315,1,.726,1.682,1.707.741.042-.041.374.248.587.349.229.109.542.315.705.238.595-.283,1.142-.666,1.916-1.138-.218.558-.346.888-.512,1.314l1.429-.892c-.024-.23-.045-.438-.067-.66,1.613.094,1.978-.171,2.142-1.577l1.76.36-.182-.584.263-.149q.416.652.833,1.3c-.271-.9.194-1.273.916-1.431a1.061,1.061,0,0,1,1.433,1l-1.18-.3v1.268l2.393-1.281c.163.45.193.894.388.983a1.528,1.528,0,0,0,.956-.106,8.039,8.039,0,0,0,1.017-.494c0-.9.175-1,1.023-.53v1.3l.313.021.7-1.159c-.232-.318-.445-.609-.659-.9a4.127,4.127,0,0,1,1.575.729,1.54,1.54,0,0,0,2.33-.538l.9.658c.869-.318,1.505-.557,2.146-.783.7-.248,1.4-.486,2.091-.722.055.253.113.513.17.772l.236.064c.254-.565.509-1.129.755-1.676.336.267.576.607.87.663,1.192.227,2.4.369,3.6.53.092.012.2-.074.372-.146l-.819-.878h2.251c-.106-.674-.188-1.2-.253-1.61l2.272.861v-.6l1.291-.7.78,1.255c.147-.667.221-1,.317-1.433l1.278.664-.9.619.093.338,2.694-.792-.341,1.138.346.342c.288-1.913,2-.762,2.808-1.65.41-.453,2.574-.406,3.062-.049-.758.679-.758.679-.106.986.432-.315.726-.7,1.053-.736,1.135-.109,2.291-.014,3.42-.151.7-.086,1.358-.525,2.063-.663.618-.121,1.282-1.058,1.957.047.112.182.859-.025,1.37-.056-.038-.282-.071-.526-.1-.719l1.626-.614c-.088.514-.164.962-.241,1.41a1.343,1.343,0,0,1,1.946-.7,3.122,3.122,0,0,0-.793-.772.658.658,0,0,1-.258-.329c-.023-.125.047-.373.119-.391.613-.15,1.236-.259,1.852-.379l.619,1.5.526-1.477c-.084-.374-.193-.851-.293-1.292l1.858,1.357c.162-.273.324-.546.531-.892.819.51,2.048.847,2.335,1.563.366.912.61.836,1.233.569l-1.324-2.142.492-.431,1.424,1.22,1.366-.69,1.331,1.063-.679.58c.708-.045,1.477-.337,1.857-.072,1.038.725,1.552.01,2.236-.447l.47,1.349a3.8,3.8,0,0,1,2.634-1.132c.988-.118,1.612-.428,2.113.627.037.078.29.06.443.076a3.013,3.013,0,0,0,2.7-.663c.175-.176.507-.2.767-.289l-.366.8.141.275a10.636,10.636,0,0,1,1.04-.51,2.437,2.437,0,0,1,1.189-.278c.24.05.386.552.492.72a9.318,9.318,0,0,0,1.322-.447,4.685,4.685,0,0,0,.845-.7,3.725,3.725,0,0,0-.981-.667,2.76,2.76,0,0,0-1.053.129c1.6-1.34,2.808-.639,3.905.7q-.133-.227-.265-.454c.808-.521,1.356-.453,1.42.692a3.13,3.13,0,0,0,1.133-.357c.268-.234.349-.682.586-1.2.38,1.064.443,2.258,1.822,1.137.113-.092,1.231-.732,1.705.255.1.2.654.279.987.255,1.348-.1,2.743-.1,3.808-1.419.082.422.12.622.161.834l.649-.7.667.853.866-.484-1.063-.534c.8-.319,1.784.2,2.026-1.261-.2,1.456.589,1.655,1.571,1.767.323.036.606.43.91.657.084.062.179.111.265.163l.726-.905.1.966,3.2-.913c-.334-1.125-.223-1.32.74-1.129,0,.08,0,.16,0,.239-.026.277-.057.554-.086.831.2-.145.39-.388.606-.415.6-.076,1.213-.063,1.82-.085V41.5l3.6-.31-.293,1.3,1.732-1.015-1.712-1.517,1.511.5L140.519,40l.117.314-.9.63c.225.179.41.079.474.13,1.042.839,1.385.455,1.581-.73.093-.561,1.8-.837,2.1-.456.575.719,1.008.658,1.4-.18.274-.582.57-.943,1.211-.291.252.256.905.513,1.084.379,1.018-.761,1.659.115,2.184.333l1.509-1.4.39.148c-.746.848-.432,1.289.346,1.533l1.138-.944c.129.327.319.681.274.714-.653.481-1.338.918-2.016,1.366a1.157,1.157,0,0,0,.829.036c.464-.082,1.2-.38,1.351-.2.908,1.085,1.618.28,2.394.073.017-.176.034-.352.05-.527q-1.206-.2-2.412-.408c1.66-.865,2.914-.109,4.079,1.016l.208-.32c-.131-.245-.262-.489-.334-.625.44-.515.856-1,1.217-1.421.027.618.054,1.229.086,1.971l-.7.482c.517.039.942.2,1.215.069a3.578,3.578,0,0,1,3.857.384,3.056,3.056,0,0,0,.946.29c-.391-.632-.619-1-.981-1.586,1.25.09,2.239-.125,2.686.92.078.183-.3.56-.469.848.033.1.065.2.1.3l1.945-.839c.181.907.462,1.071,1.361.628a10.155,10.155,0,0,1,3.032-.481l.3.365c.028-.478.056-.956.095-1.631.57.039,1.245.114,1.921.116a1.221,1.221,0,0,0,.735-.277c.389-.332.72-.73,1.175-1.206C175.259,38.562,174.46,37.587,172.676,38.061ZM143.381,15.794c-1.147,1.319-1.431,1.353-2.277.333Zm-12.3-.738a7.519,7.519,0,0,1,.756.145c-.728.631-1.963-.046-2.17,1.491-.13-.215-.416-.484-.364-.636A1.523,1.523,0,0,1,131.08,15.056Zm-111.338,3.4c.021-.124.042-.247.064-.37l1.147-.688.815,1.237ZM21.16,22.2c.145-1.382,1.177-1.828,2.49-2.364C22.913,20.985,22.47,22.065,21.16,22.2Zm6.323-4.747c.14.367.3.726.441,1.068-.81.039-1.22-.423-1.039-1.61.051-.336.789-.567,1.212-.846l.218.377-.93.558A3.009,3.009,0,0,0,27.483,17.452Zm8.45-1.784-2.769-.9c.045-.15.089-.3.133-.448l2.814.749ZM49.78,20.4l-.213-.147.358-.7q-.384-.45-.764-.9l.207-.176,2.1.678Zm2.293,6.117-.227-.4c.444-.569.662-1.554,2.092-.726Zm1.656-6.568-1.4-1.469-.682.133-.06-.4,1.859-.249c-.008-.049-.018-.112-.026-.181-.014-.121,0-.245,0-.5l1.169,1.753Zm7.828,1.907c-1.284-1.141-1.861-3.092-4.12-3.127l.52-.772,3.625,1.129-1.4.35C62.343,19.436,61.079,21.134,61.557,21.86Zm5.118,3.189c.037-.49.081-1.07.117-1.542l1.575.984Zm2.468-.623c-.117.529-.208.985-.318,1.436-.159.645-.472.991-1.426.375.584-.748,1.1-1.437,1.674-2.075a1.315,1.315,0,0,1,.639.736Zm4.92-11.433c-.336-.249-.887-.487-.874-.686a3.836,3.836,0,0,1,.552-1.244l.322.092Zm.788-.423-.09-.356c.693-.17,1.136-1.349,2.366-.24Zm5.8,10.412c1.256-.873,3.236.291,4.214-1.461C84.945,22.916,83.437,23.421,80.649,22.982Zm15.061-.3c-.591-1.328-1.248-.671-2.033-.21l1.388-1.824,1.186,1.422Zm3.93-.261c-.143-.32-.3-.636-.425-.961-.112-.276-.2-.562-.368-1.05.488.121.994.107,1.09.3a3.234,3.234,0,0,1,.227,1.37C100.166,22.185,99.824,22.3,99.64,22.416Zm2.872-1.315c.946-.033,1.152-2,2.506-.97C104.223,20.56,103.786,21.924,102.512,21.1Zm8.193-.353c-.223.139-.427.4-.655.424a6.9,6.9,0,0,1-2.154-.155c.872-.41,1.39-.936,1.034-2.088l.377.169.392,1.125.439.338.631-1.253.365,1.21C111.059,20.558,110.875,20.642,110.705,20.748Zm3.315.065-.1.18c-1-.49-1.859-.669-1.785,1.2l-.388-.256c-.1-.514-.416-1.11-.257-1.524.289-.754,1.171-.839,1.847-.771.265.026.46.744.685,1.167Zm4.122-.333c-.207-.046-.335-.036-.4-.095-.745-.641-1.874-.746-2.238-.022-.408.812-.916.516-1.457.453a3.471,3.471,0,0,0-.584-3.257l1.177.317-1.063-1.944c1.724-.005,1.162,1.577,2.264,1.972.082-.325.183-.728.331-1.32.361-.2.98-.549,1.726-.965-.081.348-.135.58-.232.994l1.945-.154.46,1.965-1.87,1.527-.262-.244C118,19.935,118.057,20.164,118.142,20.48Zm5.75-.143-2.157-.8a3.967,3.967,0,0,1-1.155,1.024,4.238,4.238,0,0,1-1.677-.035c.361-.434.679-.814,1.087-1.3l.912.433c.159-.344.3-.647.466-1.007l2.646,1.364Zm2.852-.96a6.944,6.944,0,0,1-1.383,1.264l-.828-.885.157-.237,1.079.139,1.568-2.068C128.237,18.457,127.068,18.843,126.744,19.377Zm27.968,11.991a8.455,8.455,0,0,1,.507-.737c.257.214.666.393.727.653a1.016,1.016,0,0,1-.387.87,4.659,4.659,0,0,1-1.336.325C154.444,31.969,154.555,31.656,154.712,31.368Zm1.229,1.919c-2.4.054-2.4.054-2.488-.661l2.54.345Zm1.451.027-.622-2.077,1.315.319C158.292,32.335,158.445,33.084,157.392,33.314Zm6.273.511c.226-.507.387-1.043.564-1.572l-.427-.127-.922,1.492A4.71,4.71,0,0,0,163.665,33.825Z"/>
    </g>
  </g>
</svg>
