<svg xmlns="http://www.w3.org/2000/svg" xmlns:xlink="http://www.w3.org/1999/xlink" viewBox="0 0 187.246 68.863">
  <defs>
    <style>
      .cls-1 {
        fill: url(#Degradado_sin_nombre_24);
      }
    </style>
    <linearGradient id="Degradado_sin_nombre_24" data-name="Degradado sin nombre 24" y1="-65.568" x2="187.246" y2="-65.568" gradientUnits="userSpaceOnUse">
      <stop offset="0" stop-color="#5b5b5b"/>
      <stop offset="0.997" stop-color="#05050F"/>
    </linearGradient>
  </defs>
  <title>1title_bg_2</title>
  <g id="Шар_2" data-name="Шар 2">
    <g id="z">
      <path class="cls-1" d="M97.76-40H96.747l-1.215.548C96-38.713,97.129-39.115,97.76-40Zm24.64-6.824a17.154,17.154,0,0,0-.571,1.711l.478.392a7.467,7.467,0,0,0,.44-.934,9.825,9.825,0,0,0,.225-1.113C122.774-46.795,122.452-46.945,122.4-46.825Zm64.136-17.252c.166-.437.306-.8.516-1.354a7.95,7.95,0,0,0-.816.063,8.941,8.941,0,0,1-2.518.462,3.954,3.954,0,0,1-2.315-1.062,1.975,1.975,0,0,0-2.563-.379c-.254-.417-.44-1-.644-1.011-.658-.048-1.325.2-1.985.164a6.126,6.126,0,0,1-1.513-.487c-.009-.125-.019-.249-.029-.373l-1.215,1.283a1.856,1.856,0,0,0-2.646.017l-.576-1.077c-.535.363-1.111,1.03-1.3.836-.756-.766-1.137.078-1.667.641-.114-.919.011-2.316-.982-1.761-.48.268-.811,1.143-1.274,1.84-.061-.651-.109-1.173-.151-1.627L163.2-66.528c-.344-.337-.742-1.014-.975-.9a11.484,11.484,0,0,0-1.954,1.495c-.393-.894-.974-.954-1.807-.558-.6.284-1.326-.06-1.974-.122.06.252.123.515.188.791-.459.105-.992-.016-1.21.324-.68,1.056-1.252.611-1.9.029a.571.571,0,0,0-.61-.125c-.544.327-1.061.752-1.544,1.108.037-.691.072-1.343.107-1.974l-2.876,1.884a7.245,7.245,0,0,1-1.427-.166,8.022,8.022,0,0,1-1.212-.661c-.306.109-.868.583-1.09.343-.875-.948-1.355-.681-1.53.413l-1.431,1.078a9.287,9.287,0,0,1-1.469-.016c-.655-.092-1.525.814-1.878-.836L137.026-62.2l-.692-.182c.241-1.263.471-2.472.713-3.74.419.454.892,1.035,1.211-.374l.25.138q.082.928.164,1.855c.2-.207.586-.486.565-.609-.355-2.109,1.282-1.7,1.545-2.965l-.344,1.461.227.313,2.65-1.721.1.2,2.533-.621c.559-.137,1.155-.143,1.512-.586.679-.843,1.156-.667,1.678.479L150.2-71l.533,1.653c.146-.751.233-1.2.321-1.645.695-.083,1.573.858,1.833-.9a1.639,1.639,0,0,0,2.6-1.053l1.02-.2c.015-.129.029-.258.044-.388l-1.265-1.113c2.5-1.322,2.729-1.756,1.891-3.559l.586-.213a16.446,16.446,0,0,1-.845-2.511c-.069-.384.31-.953.569-1.667.006.025-.067-.305-.215-.98l.755.93c-.026-.489-.046-.853-.086-1.613.356.7.542,1.069.736,1.45l.674-.874c-.194-.481-.378-.86-.507-1.278-.138-.442-.223-.92-.362-1.515-.906,2.057-1.31-.768-2.026.12.067-.747.115-1.276.182-2.016l-.713.547c-.082-.419-.163-.83-.243-1.24l-.144.025v1.575l-2.75-.223c.059.37.1.624.14.879-.61.162-1.164,1.551-1.856.154a.684.684,0,0,0-.639-.289,5.514,5.514,0,0,0-1.486.287c-.2.071-.33.493-.53.64-.242.177-.626.455-.772.3-.767-.8-1.16-.661-1.376.414l-3.013.454c-.416-.515-.856-.207-1.068,1.294l-1.563-.369-.607,1.726-1.048-1.8-2.4.892-.114.941c-.266-.657-.494-1.218-.794-1.96.533-.365,1.09-.745,1.724-1.177-.148-.623-.322-1.356-.516-2.175a2.427,2.427,0,0,0-.548-3.2c.237-.531.464-1.042.719-1.614.1.167.212.364.452.776-.475-2.6,1.462-.774,1.349-2.262-.114-.986-.228-1.972-.29-2.506-.352-.031-.813.117-.92-.111-.883-1.889-1.474-1.979-2.448-.247-.776-1.24-6.874.234-7.642,1.823-1.676-1.8-3.167,1.815-4.929.462.137.433.273.867.441,1.4-1.106.083-2.48-2.587-3.181.675-.109-.283-.251-.647-.378-.975a7.948,7.948,0,0,1-1.838.984,12.251,12.251,0,0,0-4.326,1.336c-.38.242-.749.526-1.123.791-.474-.233-1.094-.533-1.5-.213-1.094.867-2.53-.162-3.441,1.508-.012.021-.073.01-.1-.016-.766-.822-1.254.405-1.872.577l-.419-.741-1.432,1.306.453-2.892-1.308.2-.223-.366c.654-1.616,1.307-3.233,1.935-4.784l1.241.195c-.336-1.874-.337-1.906-1.37-1.8-.631.063-1.107.143-.449-1.054.08-.144-.176-.741-.315-1.093-.026-.064-.241.042-.353.066-.056.5-.1.932-.159,1.433l-.915-.427.219-.3c-.293-.57-.587-1.139-.756-1.467l-2.214,1.249c-.049-.3-.1-.588-.154-.933-.465.5-.856.925-1.209,1.308l-.531-.945c-.239.426-.479.851-.728,1.293l-.623-.747c-1.334.8-2.412,2.541-4,1.265l-.42,1.436c.015-.153.03-.306.046-.46-.538-.195-1.169-.744-1.588-.491-.444.269-.686,1.3-1.016,1.993-1.544-1.643-1.855-1.773-2.962-1.2-.061-.547-.12-1.079-.2-1.783l-.944.484c-.222-.376-.456-1.136-.721-1.161a4.691,4.691,0,0,0-3.667.659c-.128.1-.361-.1-.545-.166a1.86,1.86,0,0,0-.83-.122c-.715,0-1.431-.012-2.144.038-.051,0-.088.477-.078.419l-2.685,1.223-.523-.939c-.458.84-.928,1.714-1.879,1.04-.26-.184-.724.289-1.189.5a10.006,10.006,0,0,1,.765.748,1.776,1.776,0,0,1-.174.473c-.227-.111-.434-.312-.661-.426-.487-.245-.982-.454-1.56-.716-.117.886-.214,1.622-.3,2.256H66.242c0,.122.007.244.01.366l-.475-.559-.948.778c-.437-1.238-1.055-.731-1.592-.288a15.674,15.674,0,0,0-1.429,1.538c-.183-.851-.488-.667-.976-.08a3.2,3.2,0,0,1-1.389.9,7.457,7.457,0,0,1-1.381.15,3.855,3.855,0,0,0-.766.3l-.752,1.319-.378-.734c-.44.2-.8.532-1.132.477-1.038-.17-1.5.856-1.812,1.544-2.056,1.136-4.287.469-5.644,3.624-.12-.519-.188-.815-.286-1.236l-.557.925-.109-.422c-.731.241-1.368.414-1.991.666a1.9,1.9,0,0,0-1.308,2.2c0,.062-.075.135-.158.273l-.7-.313-.193-.444.9-.479-.33-.547c-.369.448-.729.918-1.115,1.331-.142.152-.35.161-.525.247-.5.247-1.007.484-1.5.755-.422.231-.833.5-1.354.825v.621c-.645-1.612-1.652,1.5-2.094-.835-.654,1.82-1.845,1.585-2.667,1.982l-.409,1.856-.215-.084c-.048-.542-.1-1.084-.189-2.1-.5,1.167-.827,1.912-1.15,2.657l-.042-.436-2.526-.2.51.9a4.185,4.185,0,0,0-1.111.328,4.342,4.342,0,0,0-.788.878l-.645-.906-.358.864-2.031.573c-.468,1.9-1.6,1.342-2.3,1.254L21.708-71.5l-.225-.138c-.035-.33-.07-.66-.144-1.366L18.4-70.17a4.816,4.816,0,0,0-1.624.272c-.529.309-1,1.276-1.479,1.24-.819-.061-1.2.283-1.258,1.522-.886-1.095-1.068-.993-1.528.715-1.775-.484-3.381.593-4.859,1.678a11.7,11.7,0,0,0-4.1,4.561,2.948,2.948,0,0,0-.613-.648c-.184-.11-.586-.07-.633.083-.261.853-.443,1.761-.653,2.65L0-57.441l1.144,1.367c.6,1.26.157,1.475-.465,1.317.453.732,1.409,1.614,1.359,2.337-.1,1.442.417,1.915.99,2.262a3.808,3.808,0,0,0,1.7.211c.02-.144.039-.289.059-.433l1.039,1.223-.135.4-.94-.064c-.061.117-.123.233-.184.349.269.36.516.954.815,1.02.354.079.752-.3,1.131-.475.723-.314-1.147-.908-.116-1.51.763.534,1.381,1.225,2.036,1.318.33.047.727-.992,1.121-1.581.478,1.043.909,1.984,1.437,3.139l-.778-.224c-.014.166-.029.331-.043.5a6.363,6.363,0,0,1,.845.129c.326.093.868.124.932.391.368,1.535.869,1.446,1.619.334a6.455,6.455,0,0,0,.536,5.692l.668-1.183a1.937,1.937,0,0,1,.034.988c-.037.357-.035.722-.065,1.42l1.6-1.073c-.005.061-.011.122-.016.183l2.786-.657c.041.456.09,1.008.118,1.311.877-.8,1.679-1.633,2.537-2.294a6.247,6.247,0,0,1,1.759-.846,7.594,7.594,0,0,1,1.335-.24,5.719,5.719,0,0,1-.066-.588,5.048,5.048,0,0,1,.123-1.642c.468-.887,1.207-.718,1.027.189l-.743.224c.047.429.082.758.112,1.037,1.232.416,1.742-1.011,2.18-1.8L29.562-42.8v-3.576l1.45,1.434c-.981.216-1.143.926-.76,2.02.362-.159.911-.6,1.025-.417.95,1.518.957.278.97-.634l1.389,1.539a5.99,5.99,0,0,1-.055,1.3,2.034,2.034,0,0,0,.9,2.282c.484.422,2.134,1.634,2.457,2,.15.173.637.122.71-.062.723-1.833.992-1.929,2-.469.478-.787.955-1.572,1.441-2.37.486,1.554.918,1.662,2.156.61l-.943-.717c.893-.929,2.011,1.467,2.6-.705l.386.459c.174-.672.328-1.262.481-1.852q.332.575.664,1.149l-.185.283.931.162c.253-.987.51-1.988.791-3.08.312.648.634,1.315.956,1.982l.408-.41-.82-1.984,1.47.593v1.584c.625-1.345,1.412-1.882,2.368-1.78a3.852,3.852,0,0,0,1.8-.4,1.52,1.52,0,0,0,.375-.92c-.578-1.035.111-1.112.441-1.053l1.559.187c.074.23.188.589.409,1.281.179-1.274.307-2.176.455-3.222l2.489,2.216a6.549,6.549,0,0,1-.058-1.793c.545-1.645,1.093-1.694,1.922-.364a13.784,13.784,0,0,0,.991,1.264l.3-.056c-.405-1.648.077-2.336.995-2.673l-.293,1.309c1.09.454,1.075-.93,1.424-1.806l.542.971,3.135-2.741.625.73c-.529.348-1.133.482-1.192.829-.271,1.574-1.146,1.314-1.659,1.532-.142.621-.241,1.054-.318,1.394.206.6.41,1.2.642,1.88-1.609-.074-2.527.519-2.715,2.23a7.111,7.111,0,0,0,.543,3.864,8.308,8.308,0,0,1,.4,1.248h-.847c.29,1.083.515,1.924.8,3,.281-.818.462-1.341.653-1.9a19.7,19.7,0,0,0,.953,3c.351.678.934,1.384,1.459,1.47s1.2-.407,1.646-.949c.732-.885,1.136-.252,1.855.582-.843-.016-1.792-.69-1.616,1.2a5.683,5.683,0,0,0,1.621-.644,11.476,11.476,0,0,0,1.451-1.82c-.118.911-.177,1.362-.233,1.793l1.418-1.943c.092.584.139.885.231,1.469.461-.952.818-1.692,1.211-2.5l.737.577-.015-.339,1.39-.6.186.48-.368.255a1.067,1.067,0,0,0,1.788.3,1.405,1.405,0,0,1,.417-.337c.3-.182.61-.339.915-.507l-.059-.364,1.327,1.095.167-.44-.708-1.128L83-36.722c-.054.766-.09,1.277-.155,2.18A13.017,13.017,0,0,0,85.7-36.428c.784-.855,1-.22,1.321.561,1.56-.817-.682-2.005.275-3.1.335.684.664,1.354,1.055,2.148.255-.873.524-1.794.792-2.715l.3.184c-.072.43-.145.861-.285,1.692l2.978-2.453c.045.587.081,1.055.122,1.584l-.8-.068c-.016.084-.033.169-.05.253l1.754,1.359c-.292-1.861.229-3.082,1.49-3.5-.439.878-.772,1.546-1.106,2.213l.228.241,1.346-.935a20.42,20.42,0,0,1,.213-2.154c.041-.208.509-.472.583-.372a11.427,11.427,0,0,1,.822,1.456c.641-1.673,1.481-1.053,2.316-.414-.118.321-.242.657-.365.993.145.2.29.4.436.592.383-.859.765-1.718,1.225-2.751.27.711.453,1.2.714,1.883.183-.761.316-1.312.447-1.853a.26.26,0,0,1,.089.055q.475.586.948,1.177a7.071,7.071,0,0,1-.408-1.428,11.606,11.606,0,0,1,.114-1.773,5.463,5.463,0,0,1,.432,1.479c0,.021.382-.03.4-.135.285-1.358.7-.447,1.048-.132a8.419,8.419,0,0,1,.763.96c.1-.754.174-1.261.279-2.016L106-40.96c.219-.858.35-1.376.5-1.95.292.383.516.894.681.854a18.028,18.028,0,0,0,2.129-.788,1.443,1.443,0,0,1,.235-.04c.367-.081.843.024,1.076-.286a16.138,16.138,0,0,0,1.188-2.137l1.526,1.485-.135.743.162.145c.22-.441.441-.881.7-1.4l.353.829c.734-.785.289-1.134-.329-1.422.083-.143.166-.287.25-.43l2.071.907c-.206-.67-.357-1.164-.521-1.7l.993-.492,1.536,2.607c.06-1.076.1-1.857.148-2.633l-.65-.532c.062-.154.125-.309.188-.463.445.379.9.739,1.335,1.144.468.435.919.911,1.378,1.369l.287-.3a9.718,9.718,0,0,1,.017-1.41c.054-.353.232-.9.4-.933a7.5,7.5,0,0,1,1.435.025c.641-.016,1.28-.087,1.964-.137-.224.537-.454,1.09-.681,1.636l1.253.687-.61-1.679h1.374l.43-1.277c.241.99.174,2.151,1.13,2.024-.5-1.629-.259-2.739.251-2.695.139.711.252,1.289.353,1.8l3.726-2.57.523,1.33.8-.8,1.192.7c-.141-.856-.218-1.318-.294-1.781a4.23,4.23,0,0,1,.871.508c.474.435.914.953,1.222,1.28l1.17-2.48,3.7-.353c-.725.855-1.9.532-1.438,2.046a16.971,16.971,0,0,1,2.695-.4c.687.006,1.251-.03,1.377-1.049l.986.709.1-2.346.163.022q.231.786.461,1.572l.234-.112v-1.808c.826,1.225.889,1.2,1.248-.307.5.662,1.01,1.322,1.366,1.787l1.243-1.793a15.793,15.793,0,0,0,1.348,1.212,5.726,5.726,0,0,0,1.023.435c.166.073.325.181.488.273a3.3,3.3,0,0,0-.087-.765c-.193-.5-.434-.962-.632-1.387,1.523-1.355,2.75-.527,3.908.895.135-.452.232-.772.426-1.419.056.821.086,1.26.116,1.689.783.04,1.367-2.241,2.274-.176.095-.694.169-1.238.258-1.888l3.229,1.132c.281-.618.733-1.615,1.279-2.819l1.812,2.584c.111-1.17.208-2.189.32-3.369l.969.588-.62.585c.148.137.287.348.447.395a7.9,7.9,0,0,0,1.127.165c-.237-.476-.443-.891-.634-1.277.581-.381.556-.358,1.174,1.192.121.3.519.35.789.516.018-.37.06-.741.047-1.109-.015-.415-.079-.826-.146-1.472,1.164.388,2.17,2.993,3.115.226.2.486.4.952.724,1.73a7.629,7.629,0,0,1,.52-1.751.962.962,0,0,1,.909-.367c.377.069.911.733,1.063.549a9,9,0,0,0,.922-1.962c-.072-.125-.144-.249-.215-.374l2.433-.35.036.511q-.642.547-1.285,1.094l.138.435a10.173,10.173,0,0,0,.95-.682c.292-.257.536-.642.831-.885a28.951,28.951,0,0,1,2.44-1.883c.614-.4.988-1.9,1.914-1.018.075.071.247-.1.375-.145.474-.188.943-.406,1.423-.553.724-.221,1.455-.391,2.279-.608Zm-51.016,1.77c-.194-.61-.332-1.043-.572-1.8l-1.793,3.289c.1-.961.2-1.942.308-2.975a13.4,13.4,0,0,0,1.74-1.44c.476-.526.648-1.822,1.563-1.223C135.365-65.8,136.231-63.731,135.52-62.307ZM96.747-40l.006,0-.016-.029c0,.012-.01.019-.014.032Z" transform="translate(0 100)"/>
    </g>
  </g>
</svg>
